<?xml version="1.0" encoding="utf-8"?>
<!DOCTYPE svg PUBLIC "-//W3C//DTD SVG 1.0//EN" "http://www.w3.org/TR/2001/REC-SVG-20010904/DTD/svg10.dtd">
<svg version="1.0" xmlns="http://www.w3.org/2000/svg" width="116px" height="163px" viewBox="0 0 116 163" preserveAspectRatio="xMidYMid meet">
 <g fill="#000000">
  <path d="M53.23 162.94 c-3.40 -0.89 -6.24 -2.48 -8.53 -4.78 -2.51 -2.52 -3.97 -5.44 -4.79 -9.49 -0.21 -1.07 -0.24 -2.47 -0.28 -14.54 -0.03 -9.22 0 -13.71 0.11 -14.50 0.46 -3.53 1.72 -6.19 4.03 -8.54 3.32 -3.37 8.58 -5.16 15.24 -5.16 5.13 0 9.38 1.09 12.69 3.24 1.07 0.71 2.99 2.60 3.68 3.65 1.72 2.63 2.39 5.22 2.42 9.30 0.01 1.83 -0.01 2.07 -0.24 2.32 -0.26 0.28 -0.31 0.28 -6.73 0.28 -5.17 0 -6.51 -0.04 -6.70 -0.17 -0.20 -0.15 -0.27 -0.47 -0.36 -1.49 -0.13 -1.61 -0.54 -2.55 -1.49 -3.53 -0.98 -0.99 -2.03 -1.45 -3.33 -1.44 -2.22 0.03 -4.07 1.32 -4.83 3.37 -0.39 1.03 -0.54 2.47 -0.54 5.12 l0 2.19 0.39 -0.28 c0.64 -0.44 2.01 -1.03 3.24 -1.38 3.30 -0.95 8.14 -0.77 11.43 0.44 2.39 0.87 4.16 2.03 5.91 3.85 2.28 2.39 3.71 5.33 4.38 9.04 0.32 1.83 0.32 6.40 -0.01 8.26 -0.68 3.76 -2.20 6.85 -4.61 9.34 -2.31 2.39 -5.18 4.03 -8.59 4.90 -1.25 0.31 -1.42 0.32 -6.27 0.32 -4.78 -0.01 -5.03 -0.03 -6.19 -0.32z m7.12 -11.57 c2.74 -0.70 4.63 -3.42 4.63 -6.63 0 -4.11 -3.25 -7.14 -6.70 -6.26 -3.99 1.02 -5.73 5.50 -3.77 9.72 0.71 1.54 2.13 2.73 3.77 3.17 0.94 0.26 1.11 0.26 2.07 0z"/>
  <path d="M1.92 162.66 c-0.52 -0.26 -1.17 -0.71 -1.44 -1.01 l-0.48 -0.54 0 -79.87 0 -79.87 0.62 -0.68 0.62 -0.68 44.88 0 44.90 0 0.47 0.58 c1.01 1.24 0.94 0.46 1.02 12.04 l0.07 10.41 10.41 0.07 10.41 0.07 0.75 0.38 c0.42 0.20 1.01 0.63 1.32 0.97 l0.55 0.60 0 22.21 0 22.21 -0.56 0.56 c-0.32 0.32 -0.91 0.74 -1.32 0.93 l-0.74 0.35 -10.41 0.07 -10.41 0.07 -0.07 10.47 -0.07 10.47 -0.40 0.71 c-0.47 0.86 -0.95 1.29 -1.95 1.76 l-0.74 0.35 -30.44 0.04 -30.45 0.03 -0.03 32.40 -0.04 32.38 -0.31 0.58 c-0.47 0.90 -1.30 1.71 -2.08 2.05 l-0.70 0.32 -11.22 0.04 -11.21 0.03 -0.95 -0.47z m85.75 -115.33 l0 -19.53 -29.60 0 -29.60 0 0 19.53 0 19.53 29.60 0 29.60 0 0 -19.53z"/>
 </g>
 <g fill="#ffffff">
  <path d="M0 161.55 l0 -1.72 0.28 0.56 c0.36 0.75 1.17 1.46 2.20 1.93 l0.83 0.39 10.79 -0.03 10.79 -0.04 0.70 -0.32 c0.78 -0.35 1.61 -1.15 2.08 -2.05 l0.31 -0.58 0.04 -32.38 0.03 -32.40 30.45 -0.03 30.44 -0.04 0.74 -0.35 c0.99 -0.47 1.48 -0.90 1.95 -1.76 l0.40 -0.71 0.07 -10.47 0.07 -10.47 10.41 -0.07 10.41 -0.07 0.64 -0.30 c0.83 -0.39 1.38 -0.86 1.95 -1.62 l0.43 -0.62 0 47.42 0 47.42 -27.15 -0.01 -27.16 -0.01 1.48 -0.26 c4.61 -0.81 7.93 -2.47 10.71 -5.34 2.40 -2.50 3.93 -5.60 4.61 -9.34 0.32 -1.81 0.34 -5.65 0.01 -7.45 -0.48 -2.63 -1.49 -5.21 -2.79 -7.14 -0.70 -1.02 -2.35 -2.77 -3.38 -3.56 -5.01 -3.85 -13.44 -4.31 -18.34 -0.99 -0.34 0.21 -0.64 0.38 -0.71 0.34 -0.15 -0.09 -0.13 -5.24 0.01 -6.57 0.30 -2.51 1.42 -4.11 3.46 -4.91 0.63 -0.24 1.05 -0.31 2.19 -0.31 1.28 -0.01 1.49 0.03 2.22 0.36 0.44 0.20 1.11 0.68 1.50 1.06 0.95 0.94 1.37 1.91 1.50 3.54 0.09 1.02 0.16 1.34 0.36 1.49 0.19 0.13 1.46 0.17 6.30 0.17 6 0 6.07 0 6.32 -0.28 0.23 -0.26 0.26 -0.48 0.23 -2.07 -0.05 -3.67 -0.77 -6.24 -2.40 -8.75 -0.68 -1.05 -2.60 -2.94 -3.68 -3.65 -4.54 -2.95 -11.32 -3.97 -17.86 -2.69 -3.93 0.78 -6.99 2.30 -9.26 4.61 -2.31 2.35 -3.57 5.01 -4.03 8.54 -0.11 0.79 -0.13 5.16 -0.11 14.10 0.05 14.15 0.03 13.60 0.86 16.49 0.40 1.41 1.44 3.60 2.30 4.90 1.38 2.08 3.97 4.28 6.55 5.57 1.93 0.95 4.91 1.83 7.18 2.08 0.26 0.03 -12.45 0.07 -28.22 0.07 l-28.70 0.03 0 -1.71z"/>
  <path d="M57.88 151.77 c-2.17 -0.58 -3.72 -2.28 -4.38 -4.82 -0.27 -1.03 -0.27 -3.38 0 -4.40 0.79 -3.03 3.24 -4.81 6.40 -4.63 3.36 0.20 5.48 2.83 5.48 6.82 0 3.63 -1.75 6.30 -4.63 7.04 -0.97 0.26 -1.92 0.26 -2.87 0z"/>
  <path d="M28.06 47.33 l0 -19.94 30.01 0 30.01 0 0 19.94 0 19.94 -30.01 0 -30.01 0 0 -19.94z"/>
  <path d="M115.81 25.99 c-0.13 -0.54 -1.25 -1.65 -2.07 -2.05 l-0.77 -0.38 -10.41 -0.07 -10.41 -0.07 -0.07 -10.41 c-0.07 -10.35 -0.07 -10.41 -0.36 -11.04 -0.16 -0.35 -0.59 -0.94 -0.97 -1.32 l-0.67 -0.67 12.94 0 12.96 0 0 13.16 c0 7.24 -0.03 13.16 -0.05 13.16 -0.03 0 -0.09 -0.15 -0.13 -0.32z"/>
  <path d="M0 1.32 l0 -1.32 1.17 0 1.15 0 -0.52 0.39 c-0.68 0.50 -1.03 0.89 -1.45 1.62 l-0.35 0.60 0 -1.30z"/>
 </g>
</svg>